<svg xmlns="http://www.w3.org/2000/svg" width="1920" height="1080">
  <path fill="#f3f3f3" stroke="#f3f3f3" stroke-width="1.51" d="M144-496l627 167 259 6z"/>
  <path fill="#e3e3e3" stroke="#e3e3e3" stroke-width="1.51" d="M473 1526l-710 144 1549-64z"/>
  <path fill="#eee" stroke="#eee" stroke-width="1.51" d="M1030-323h591l383-159z"/>
  <path fill="#f1f1f1" stroke="#f1f1f1" stroke-width="1.51" d="M144-496l886 173 974-159z"/>
  <path fill="#e0e0e0" stroke="#e0e0e0" stroke-width="1.51" d="M2231 495l-62 205 104 312z"/>
  <path fill="#e6e6e6" stroke="#e6e6e6" stroke-width="1.51" d="M1978-42l253 537 61-745z"/>
  <path fill="#efefef" stroke="#efefef" stroke-width="1.51" d="M144-496l1860 14 534-92z"/>
  <path fill="#f5f5f5" stroke="#f5f5f5" stroke-width="1.51" d="M-598-561l742 65 2394-78z"/>
  <path fill="#e0e0e0" stroke="#e0e0e0" stroke-width="1.51" d="M2273 1012l-19 449 284-2035z"/>
  <path fill="#eaeaea" stroke="#eaeaea" stroke-width="1.51" d="M2004-482l288 232 246-324z"/>
  <path fill="#e6e6e6" stroke="#e6e6e6" stroke-width="1.51" d="M2292-250l-61 745 307-1069z"/>
  <path fill="#e3e3e3" stroke="#e3e3e3" stroke-width="1.51" d="M2231 495l42 517 265-1586z"/>
  <path fill="#ddd" stroke="#ddd" stroke-width="1.51" d="M1849 1003l-103 412 229 141z"/>
  <path fill="#e4e4e4" stroke="#e4e4e4" stroke-width="1.51" d="M1978-42l-93 530 346 7z"/>
  <path fill="#dcdcdc" stroke="#dcdcdc" stroke-width="1.51" d="M1849 1003l126 553 279-95z"/>
  <path fill="#ddd" stroke="#ddd" stroke-width="1.51" d="M1849 1003l405 458 19-449z"/>
  <path fill="#dfdfdf" stroke="#dfdfdf" stroke-width="1.51" d="M2169 700l-320 303 424 9z"/>
  <path fill="#eaeaea" stroke="#eaeaea" stroke-width="1.51" d="M2004-482l-26 440 314-208z"/>
  <path fill="#e2e2e2" stroke="#e2e2e2" stroke-width="1.51" d="M1885 488l284 212 62-205z"/>
  <path fill="#e2e2e2" stroke="#e2e2e2" stroke-width="1.51" d="M1885 488l-83 133 367 79z"/>
  <path fill="#e1e1e1" stroke="#e1e1e1" stroke-width="1.51" d="M1802 621l47 382 320-303z"/>
  <path fill="#dfdfdf" stroke="#dfdfdf" stroke-width="1.51" d="M1685 1139l61 276 103-412z"/>
  <path fill="#e2e2e2" stroke="#e2e2e2" stroke-width="1.51" d="M1802 621l-62 68 109 314z"/>
  <path fill="#dcdcdc" stroke="#dcdcdc" stroke-width="1.51" d="M1746 1415l-434 191 663-50z"/>
  <path fill="#e7e7e7" stroke="#e7e7e7" stroke-width="1.51" d="M1617 172l268 316 93-530z"/>
  <path fill="#ebebeb" stroke="#ebebeb" stroke-width="1.51" d="M1621-323l357 281 26-440z"/>
  <path fill="#eaeaea" stroke="#eaeaea" stroke-width="1.51" d="M1621-323l-4 495 361-214z"/>
  <path fill="#ebebeb" stroke="#ebebeb" stroke-width="1.51" d="M1410-49l207 221 4-495z"/>
  <path fill="#e5e5e5" stroke="#e5e5e5" stroke-width="1.51" d="M1617 172l185 449 83-133z"/>
  <path fill="#e5e5e5" stroke="#e5e5e5" stroke-width="1.51" d="M1617 172l123 517 62-68z"/>
  <path fill="#e1e1e1" stroke="#e1e1e1" stroke-width="1.51" d="M1740 689l-55 450 164-136z"/>
  <path fill="#e6e6e6" stroke="#e6e6e6" stroke-width="1.51" d="M1617 172l-393 451 516 66z"/>
  <path fill="#e2e2e2" stroke="#e2e2e2" stroke-width="1.51" d="M1244 962l441 177 55-450z"/>
  <path fill="#e5e5e5" stroke="#e5e5e5" stroke-width="1.51" d="M1224 623l20 339 496-273z"/>
  <path fill="#dfdfdf" stroke="#dfdfdf" stroke-width="1.51" d="M1685 1139l-373 467 434-191z"/>
  <path fill="#e1e1e1" stroke="#e1e1e1" stroke-width="1.51" d="M1244 962l68 644 373-467z"/>
  <path fill="#eaeaea" stroke="#eaeaea" stroke-width="1.51" d="M1410-49l-342 175 549 46z"/>
  <path fill="#e9e9e9" stroke="#e9e9e9" stroke-width="1.51" d="M1068 126l156 497 393-451z"/>
  <path fill="#ededed" stroke="#ededed" stroke-width="1.51" d="M1030-323l380 274 211-274z"/>
  <path fill="#eaeaea" stroke="#eaeaea" stroke-width="1.51" d="M1068 126l-79 82 235 415z"/>
  <path fill="#e4e4e4" stroke="#e4e4e4" stroke-width="1.51" d="M937 962l-185 409 492-409z"/>
  <path fill="#e2e2e2" stroke="#e2e2e2" stroke-width="1.51" d="M1244 962l-492 409 560 235z"/>
  <path fill="#ededed" stroke="#ededed" stroke-width="1.51" d="M1030-323l38 449 342-175z"/>
  <path fill="#e5e5e5" stroke="#e5e5e5" stroke-width="1.51" d="M1224 623L937 962h307z"/>
  <path fill="#e2e2e2" stroke="#e2e2e2" stroke-width="1.51" d="M752 1371l-279 155 839 80z"/>
  <path fill="#eaeaea" stroke="#eaeaea" stroke-width="1.51" d="M989 208L783 401l441 222z"/>
  <path fill="#e7e7e7" stroke="#e7e7e7" stroke-width="1.51" d="M748 789l189 173 287-339z"/>
  <path fill="#e9e9e9" stroke="#e9e9e9" stroke-width="1.51" d="M783 401l-35 388 476-166z"/>
  <path fill="#f0f0f0" stroke="#f0f0f0" stroke-width="1.51" d="M771-329l-12 454 271-448z"/>
  <path fill="#eee" stroke="#eee" stroke-width="1.51" d="M1030-323L759 125l309 1z"/>
  <path fill="#ececec" stroke="#ececec" stroke-width="1.51" d="M759 125l230 83 79-82z"/>
  <path fill="#e5e5e5" stroke="#e5e5e5" stroke-width="1.51" d="M481 1105l271 266 185-409z"/>
  <path fill="#ececec" stroke="#ececec" stroke-width="1.51" d="M759 125l24 276 206-193z"/>
  <path fill="#e7e7e7" stroke="#e7e7e7" stroke-width="1.51" d="M748 789l-267 316 456-143z"/>
  <path fill="#e8e8e8" stroke="#e8e8e8" stroke-width="1.51" d="M519 782l-38 323 267-316z"/>
  <path fill="#f1f1f1" stroke="#f1f1f1" stroke-width="1.51" d="M335-148l424 273 12-454z"/>
  <path fill="#f4f4f4" stroke="#f4f4f4" stroke-width="1.51" d="M172-428l163 280 436-181z"/>
  <path fill="#f6f6f6" stroke="#f6f6f6" stroke-width="1.51" d="M144-496l28 68 599 99z"/>
  <path fill="#eaeaea" stroke="#eaeaea" stroke-width="1.51" d="M519 782l229 7 35-388z"/>
  <path fill="#eee" stroke="#eee" stroke-width="1.51" d="M759 125L202 259l581 142z"/>
  <path fill="#ececec" stroke="#ececec" stroke-width="1.51" d="M202 259l317 523 264-381z"/>
  <path fill="#f0f0f0" stroke="#f0f0f0" stroke-width="1.51" d="M335-148L202 259l557-134z"/>
  <path fill="#e5e5e5" stroke="#e5e5e5" stroke-width="1.51" d="M481 1105l-8 421 279-155z"/>
  <path fill="#e8e8e8" stroke="#e8e8e8" stroke-width="1.51" d="M-179 1046l652 480 8-421z"/>
  <path fill="#ececec" stroke="#ececec" stroke-width="1.51" d="M-5 593l-174 453 660 59z"/>
  <path fill="#ebebeb" stroke="#ebebeb" stroke-width="1.51" d="M-5 593l486 512 38-323z"/>
  <path fill="#eee" stroke="#eee" stroke-width="1.51" d="M202 259L-5 593l524 189z"/>
  <path fill="#e8e8e8" stroke="#e8e8e8" stroke-width="1.51" d="M-179 1046l-58 624 710-144z"/>
  <path fill="#f3f3f3" stroke="#f3f3f3" stroke-width="1.51" d="M-109-23l311 282 133-407z"/>
  <path fill="#f5f5f5" stroke="#f5f5f5" stroke-width="1.51" d="M172-428L-109-23l444-125z"/>
  <path fill="#eee" stroke="#eee" stroke-width="1.51" d="M-245 772l66 274L-5 593z"/>
  <path fill="#f1f1f1" stroke="#f1f1f1" stroke-width="1.51" d="M-96 297l91 296 207-334z"/>
  <path fill="#f3f3f3" stroke="#f3f3f3" stroke-width="1.51" d="M-109-23l13 320 298-38z"/>
  <path fill="#f7f7f7" stroke="#f7f7f7" stroke-width="1.51" d="M144-496L-109-23l281-405z"/>
  <path fill="#f9f9f9" stroke="#f9f9f9" stroke-width="1.51" d="M-598-561l489 538 253-473z"/>
  <path fill="#ebebeb" stroke="#ebebeb" stroke-width="1.51" d="M-554 1392l317 278 58-624z"/>
  <path fill="#f4f4f4" stroke="#f4f4f4" stroke-width="1.51" d="M-109-23l-248 151 261 169z"/>
  <path fill="#f0f0f0" stroke="#f0f0f0" stroke-width="1.51" d="M-96 297l-149 475L-5 593z"/>
  <path fill="#ededed" stroke="#ededed" stroke-width="1.51" d="M-550 1181l-4 211 375-346z"/>
  <path fill="#f8f8f8" stroke="#f8f8f8" stroke-width="1.51" d="M-598-561l241 689 248-151z"/>
  <path fill="#f2f2f2" stroke="#f2f2f2" stroke-width="1.51" d="M-435 207l190 565 149-475z"/>
  <path fill="#f4f4f4" stroke="#f4f4f4" stroke-width="1.51" d="M-357 128l-78 79 339 90z"/>
  <path fill="#eee" stroke="#eee" stroke-width="1.51" d="M-245 772l-305 409 371-135z"/>
  <path fill="#f1f1f1" stroke="#f1f1f1" stroke-width="1.51" d="M-435 207l-115 974 305-409z"/>
  <path fill="#f8f8f8" stroke="#f8f8f8" stroke-width="1.51" d="M-598-561l163 768 78-79z"/>
  <path fill="#f5f5f5" stroke="#f5f5f5" stroke-width="1.51" d="M-598-561l48 1742 115-974z"/>
  <path fill="#f2f2f2" stroke="#f2f2f2" stroke-width="1.51" d="M-598-561l44 1953 4-211z"/>
</svg>
